<svg xmlns="http://www.w3.org/2000/svg" xmlns:xlink="http://www.w3.org/1999/xlink" width="500" zoomAndPan="magnify" viewBox="0 0 375 374.999991" height="500" preserveAspectRatio="xMidYMid meet" version="1.2"><defs><clipPath id="c44e4af1a4"><path d="M 89.914062 210.816406 L 182.839844 210.816406 L 182.839844 221.148438 L 89.914062 221.148438 Z M 89.914062 210.816406 "/></clipPath><clipPath id="ee56793c14"><path d="M 95.078125 210.816406 L 177.640625 210.816406 C 179.011719 210.816406 180.324219 211.363281 181.292969 212.332031 C 182.261719 213.300781 182.804688 214.613281 182.804688 215.984375 C 182.804688 217.351562 182.261719 218.667969 181.292969 219.636719 C 180.324219 220.605469 179.011719 221.148438 177.640625 221.148438 L 95.078125 221.148438 C 93.707031 221.148438 92.394531 220.605469 91.425781 219.636719 C 90.457031 218.667969 89.914062 217.351562 89.914062 215.984375 C 89.914062 214.613281 90.457031 213.300781 91.425781 212.332031 C 92.394531 211.363281 93.707031 210.816406 95.078125 210.816406 Z M 95.078125 210.816406 "/></clipPath><clipPath id="b3b707d6d4"><path d="M 194.894531 152.109375 L 287.824219 152.109375 L 287.824219 162.4375 L 194.894531 162.4375 Z M 194.894531 152.109375 "/></clipPath><clipPath id="c0d0872c92"><path d="M 200.0625 152.109375 L 282.625 152.109375 C 283.992188 152.109375 285.308594 152.652344 286.277344 153.621094 C 287.246094 154.589844 287.789062 155.902344 287.789062 157.273438 C 287.789062 158.644531 287.246094 159.957031 286.277344 160.925781 C 285.308594 161.894531 283.992188 162.4375 282.625 162.4375 L 200.0625 162.4375 C 198.691406 162.4375 197.378906 161.894531 196.410156 160.925781 C 195.441406 159.957031 194.894531 158.644531 194.894531 157.273438 C 194.894531 155.902344 195.441406 154.589844 196.410156 153.621094 C 197.378906 152.652344 198.691406 152.109375 200.0625 152.109375 Z M 200.0625 152.109375 "/></clipPath></defs><g id="d4e2c1e768"><rect x="0" width="375" y="0" height="374.999991" style="fill:#ffffff;fill-opacity:1;stroke:none;"/><rect x="0" width="375" y="0" height="374.999991" style="fill:#ffffff;fill-opacity:1;stroke:none;"/><g clip-rule="nonzero" clip-path="url(#c44e4af1a4)"><g clip-rule="nonzero" clip-path="url(#ee56793c14)"><path style=" stroke:none;fill-rule:nonzero;fill:#000000;fill-opacity:1;" d="M 89.914062 210.816406 L 182.800781 210.816406 L 182.800781 221.148438 L 89.914062 221.148438 Z M 89.914062 210.816406 "/></g></g><g clip-rule="nonzero" clip-path="url(#b3b707d6d4)"><g clip-rule="nonzero" clip-path="url(#c0d0872c92)"><path style=" stroke:none;fill-rule:nonzero;fill:#000000;fill-opacity:1;" d="M 194.894531 152.109375 L 287.785156 152.109375 L 287.785156 162.4375 L 194.894531 162.4375 Z M 194.894531 152.109375 "/></g></g><g style="fill:#000000;fill-opacity:1;"><g transform="translate(86.536748, 193.128825)"><path style="stroke:none" d="M 3 0 L 11.390625 -41.984375 L 25.671875 -41.984375 C 29.910156 -41.984375 33.488281 -41.0625 36.40625 -39.21875 C 39.332031 -37.382812 41.40625 -34.847656 42.625 -31.609375 C 43.84375 -28.367188 44.03125 -24.648438 43.1875 -20.453125 C 42.425781 -16.410156 40.835938 -12.847656 38.421875 -9.765625 C 36.003906 -6.691406 33.015625 -4.296875 29.453125 -2.578125 C 25.890625 -0.859375 21.972656 0 17.703125 0 Z M 9.421875 -5.03125 L 18.0625 -5.03125 C 21.332031 -5.03125 24.347656 -5.71875 27.109375 -7.09375 C 29.867188 -8.476562 32.1875 -10.398438 34.0625 -12.859375 C 35.945312 -15.328125 37.207031 -18.160156 37.84375 -21.359375 C 38.488281 -24.515625 38.390625 -27.25 37.546875 -29.5625 C 36.710938 -31.882812 35.234375 -33.695312 33.109375 -35 C 30.992188 -36.300781 28.335938 -36.953125 25.140625 -36.953125 L 15.78125 -36.953125 Z M 9.421875 -5.03125 "/></g></g><g style="fill:#000000;fill-opacity:1;"><g transform="translate(144.657041, 193.128825)"><path style="stroke:none" d="M -2.09375 0 L 23.578125 -41.984375 L 28.546875 -41.984375 L 37.375 0 L 32.09375 0 L 30.109375 -9.53125 L 9.71875 -9.53125 L 3.84375 0 Z M 12.71875 -14.453125 L 29.09375 -14.453125 L 24.890625 -34.609375 Z M 12.71875 -14.453125 "/></g></g><g style="fill:#000000;fill-opacity:1;"><g transform="translate(184.052292, 221.633174)"><path style="stroke:none" d="M 11.640625 0 L 6.421875 -41.984375 L 11.703125 -41.984375 L 13.796875 -23.875 L 15.65625 -8.453125 L 34.84375 -41.984375 L 39.765625 -41.984375 L 42.828125 -23.875 L 45.53125 -8.453125 L 53.5 -23.875 L 62.984375 -41.984375 L 68.796875 -41.984375 L 46.734375 0 L 41.875 0 L 39.296875 -15.296875 L 36.046875 -33.953125 L 25.4375 -15.171875 L 16.609375 0 Z M 11.640625 0 "/></g></g><g style="fill:#000000;fill-opacity:1;"><g transform="translate(261.125167, 221.633174)"><path style="stroke:none" d="M 3 0 L 11.390625 -41.984375 L 16.3125 -41.984375 L 32.75 -8.640625 L 34.546875 -17.75 L 39.40625 -41.984375 L 44.75 -41.984375 L 36.34375 0 L 31.484375 0 L 15.0625 -33.234375 L 13.609375 -26.09375 L 8.390625 0 Z M 3 0 "/></g></g></g></svg>